# xmcd
# Track frame offsets:
# 150
# 11527
# 21127
# 34537
# 42775
# 56675
# 67537
# 79900
# 97070
# 108950
#
# Disc length: 1660 seconds
# Revision: 0
# Processed by: cddbd v1.4PL0 Copyright (c) Steve Scherf et al.
# Submitted via: VisiTrax 2.9.5.180 - For more info visit www.synapsa.com
#
DISCID=6e067a0a
DTITLE=Darrell McCall and Johnny Bush - Hot Texas Country
DYEAR=1900
DGENRE=
TTITLE0=The twenty-fourth hour
TTITLE1=Pick me up on your way down
TTITLE2=Wait till the sun shines Nellie
TTITLE3=You done me wrong
TTITLE4=If you'll hold the ladder
TTITLE5=I can't see Texas from here
TTITLE6=There'll always be a honky tonk in Texas
TTITLE7=Just ridin' through
TTITLE8=Broken promise land
TTITLE9=Afternoon rendezvous
EXTD=
EXTT0=
EXTT1=
EXTT2=
EXTT3=
EXTT4=
EXTT5=
EXTT6=
EXTT7=
EXTT8=
EXTT9=
PLAYORDER=
